<svg xmlns="http://www.w3.org/2000/svg" viewBox="0 0 64 64" fill="none">
  <defs>
    <linearGradient id="river" x1="0" y1="0" x2="1" y2="1">
      <stop offset="0%" stop-color="#16a34a"/>
      <stop offset="100%" stop-color="#3b82f6"/>
    </linearGradient>
  </defs>
  <circle cx="32" cy="32" r="30" fill="url(#river)" opacity="0.1"/>
  <path d="M32 8C32 8 20 20 20 30C20 36.627 25.373 42 32 42C38.627 42 44 36.627 44 30C44 20 32 8 32 8Z" fill="#16a34a" opacity="0.3"/>
  <path d="M32 14C32 14 24 22 24 30C24 34.418 27.582 38 32 38C36.418 38 40 34.418 40 30C40 22 32 14 32 14Z" fill="#22c55e" opacity="0.4"/>
  <circle cx="32" cy="30" r="6" fill="#22c55e"/>
  <circle cx="32" cy="30" r="3" fill="white"/>
  <path d="M12 48L20 38L28 44L36 36L44 42L52 32" stroke="#3b82f6" stroke-width="2.5" stroke-linecap="round" stroke-linejoin="round" opacity="0.7"/>
  <path d="M16 52L24 44L32 50L40 42L48 48" stroke="#16a34a" stroke-width="2" stroke-linecap="round" stroke-linejoin="round" opacity="0.5"/>
  <circle cx="20" cy="38" r="2" fill="#3b82f6" opacity="0.8"/>
  <circle cx="36" cy="36" r="2" fill="#3b82f6" opacity="0.8"/>
  <circle cx="44" cy="42" r="2" fill="#3b82f6" opacity="0.8"/>
  <circle cx="52" cy="32" r="2" fill="#ef4444" opacity="0.9">
    <animate attributeName="opacity" values="0.9;0.4;0.9" dur="2s" repeatCount="indefinite"/>
  </circle>
</svg>
